<?xml version="1.0" encoding="utf-8" ?><svg xmlns="http://www.w3.org/2000/svg" xmlns:xlink="http://www.w3.org/1999/xlink" width="3075" height="762" viewBox="0 0 3075 762"><clipPath id="cl_3"><rect x="-7.6293945e-06" y="-0.00012207031" width="3075.3784" height="762.20984"/></clipPath><g clip-path="url(#cl_3)"><defs><linearGradient id="gradient_0" gradientUnits="userSpaceOnUse" x1="604.56726" y1="1777.5151" x2="491.74777" y2="1429.0035"><stop offset="0" stop-color="#030640"/><stop offset="1" stop-color="#001F67"/></linearGradient></defs><path fill="url(#gradient_0)" transform="matrix(1.06157 0 0 1.06157 -81.7412 -1286.63)" d="M192.56 1402.87C204.987 1377.52 214.235 1362.05 232.599 1339.53C282.054 1279.25 353.467 1241.14 431.072 1233.6C523.011 1224.67 592.796 1248.79 662.938 1306.73C668.709 1310.91 671.001 1312.53 675.984 1317.49C689.786 1331.71 706.631 1327.16 725.169 1329.86C740.848 1333.86 750.661 1335.82 764.654 1344.13L762.615 1346.83C757.014 1346.28 749.176 1345.79 744.893 1350.04C746.912 1354.27 751.041 1354.82 754.88 1357.98L754.613 1359.87C763.578 1357.16 775.699 1364.29 774.05 1375.28L771.59 1376.8C793.202 1398.72 802.944 1411.47 813.972 1440.02C818.642 1454.47 825.216 1485.46 829.965 1496.64C837.354 1507.48 838.784 1522.11 848.053 1532.41L850.703 1532.86C853.097 1529.33 852.432 1524.86 852.453 1520.33C864.967 1573.13 870.795 1641.97 803.295 1657.04L801.689 1656.97C776.488 1661.66 773.727 1652.78 754.724 1676.94C752.987 1680.48 751.634 1684.27 749.42 1687.54C743.45 1708.51 734.061 1729.77 727.35 1750.66C725.604 1756.1 722.107 1767.55 717.328 1770.63C709.593 1775.14 686.813 1768.15 680.91 1763.9C662.577 1758.51 668.436 1767.49 654.605 1773.23C651.593 1775.4 646.321 1779.64 643.159 1780.65C624.639 1782.61 607.455 1782 589.853 1786.5C531.406 1801.42 496.029 1826.82 434.485 1804.66C424.162 1800.94 409.959 1799.14 399.908 1792.89L404.279 1792.05C409.492 1794.33 434.083 1800.68 439.285 1800.25C427.855 1791.69 406.389 1784.3 392.561 1782.97C370.498 1780.84 356.119 1769.65 336.944 1760.56C331.536 1757.99 333.755 1761.68 330.521 1754.57L332.512 1751.28C312.601 1739.1 290.922 1723.75 274.857 1706.86C263.086 1696.19 255.5 1687.67 246.324 1674.89C243.758 1672.43 239.472 1666.3 235.904 1662.52C234.92 1659.58 228.277 1645.89 226.556 1642.34C216.374 1621.33 210.439 1606.8 206.865 1583.54C199.265 1541.52 202.168 1510.55 210.683 1469.41C208.891 1470.5 210.068 1469.87 207.01 1471.01C201.693 1465.1 208.962 1457.99 207.764 1448.73C206.911 1440.1 218.316 1423.29 221.494 1414.91L216.815 1414.86C209.701 1410.69 206.091 1405.64 200.666 1399.42C196.901 1402.12 194.633 1408.77 192.583 1413.27L193.302 1410.18C190.983 1406.77 191.928 1408.58 192.56 1402.87Z"/><path fill="#001655" transform="matrix(1.06157 0 0 1.06157 -81.7412 -1286.63)" d="M192.56 1402.87C204.987 1377.52 214.235 1362.05 232.599 1339.53C282.054 1279.25 353.467 1241.14 431.072 1233.6C523.011 1224.67 592.796 1248.79 662.938 1306.73C668.709 1310.91 671.001 1312.53 675.984 1317.49C689.786 1331.71 706.631 1327.16 725.169 1329.86C740.848 1333.86 750.661 1335.82 764.654 1344.13L762.615 1346.83C757.014 1346.28 749.176 1345.79 744.893 1350.04C746.912 1354.27 751.041 1354.82 754.88 1357.98L754.613 1359.87C763.578 1357.16 775.699 1364.29 774.05 1375.28L771.59 1376.8C752.601 1365.53 752.741 1364.14 730.347 1358.96C713.33 1356.52 708.325 1356.25 691.164 1357.57C648.104 1362.84 614.155 1396.64 582.538 1424.22C558.683 1443.48 533.689 1467.28 510.11 1485.5C503.433 1493.21 449.203 1538.78 438.41 1547.07C431.711 1553.48 424.813 1559.24 417.756 1565.23L415.357 1566.94C390.559 1584.73 343.69 1630.58 320.959 1640.64C310.593 1645.32 299.099 1646.92 287.846 1645.26C274.789 1643.23 270.315 1641.16 260.234 1633.2C256.128 1631.59 252.984 1630.27 249.003 1628.37C245.218 1632.44 245.54 1637.59 245.713 1643.25C245.761 1644.8 245.826 1646.36 245.91 1647.91L247.701 1649.49L248.839 1646.08C253.665 1652.8 252.357 1661.29 254.856 1666.17L252.434 1674.45C248.785 1675.57 250.218 1675.36 246.324 1674.89C243.758 1672.43 239.472 1666.3 235.904 1662.52C234.92 1659.58 228.277 1645.89 226.556 1642.34C216.374 1621.33 210.439 1606.8 206.865 1583.54C199.265 1541.52 202.168 1510.55 210.683 1469.41C208.891 1470.5 210.068 1469.87 207.01 1471.01C201.693 1465.1 208.962 1457.99 207.764 1448.73C206.911 1440.1 218.316 1423.29 221.494 1414.91L216.815 1414.86C209.701 1410.69 206.091 1405.64 200.666 1399.42C196.901 1402.12 194.633 1408.77 192.583 1413.27L193.302 1410.18C190.983 1406.77 191.928 1408.58 192.56 1402.87Z"/><path fill="#2C5CFD" transform="matrix(1.06157 0 0 1.06157 -81.7412 -1286.63)" d="M274.71 1416.7C274.836 1416.28 274.962 1415.85 275.087 1415.43C295.111 1365.24 309.625 1366.53 353.83 1381.74L354.994 1376.97C357.365 1382.67 358.626 1408.52 358.688 1415.9C359.875 1411.01 360.979 1399.89 362.963 1397.93C363.041 1391.42 363.249 1389.01 364.402 1382.6C371.773 1380.94 399.918 1380.54 406.621 1384.11C407.576 1388.28 407.855 1389.96 409.477 1393.97C411.99 1390.8 410.381 1387.02 412.391 1381.35L412.698 1383.26C422.662 1392.14 425.707 1386.9 437.138 1388.91C484.606 1397.23 533.866 1393.11 580.447 1404.56C583.549 1405.33 583.914 1407.19 585.263 1409.64C584.151 1413.04 585.043 1411.65 582.805 1413.95L580.324 1416.75C581.032 1419.54 581.619 1421.5 582.538 1424.22C558.683 1443.48 533.689 1467.28 510.11 1485.5C503.433 1493.21 449.203 1538.78 438.41 1547.07C431.711 1553.48 424.813 1559.24 417.756 1565.23L415.357 1566.94C390.559 1584.73 343.69 1630.58 320.959 1640.64C310.593 1645.32 299.099 1646.92 287.846 1645.26C274.789 1643.23 270.315 1641.16 260.234 1633.2C253.8 1625.06 249.767 1620.64 245.677 1611.08C245.424 1609.12 242.146 1598.79 241.392 1596.27C236.613 1573.6 239.06 1529.59 243.229 1506.95C243.46 1482.02 260.049 1425.79 273.028 1404.36L271.98 1414.34C273.864 1416.61 272.811 1416.03 274.71 1416.7Z"/><defs><linearGradient id="gradient_1" gradientUnits="userSpaceOnUse" x1="494.66208" y1="1518.756" x2="499.07968" y2="1388.6115"><stop offset="0" stop-color="#0070FF"/><stop offset="1" stop-color="#0CF"/></linearGradient></defs><path fill="url(#gradient_1)" transform="matrix(1.06157 0 0 1.06157 -81.7412 -1286.63)" d="M406.621 1384.11C407.576 1388.28 407.855 1389.96 409.477 1393.97C411.99 1390.8 410.381 1387.02 412.391 1381.35L412.698 1383.26C422.662 1392.14 425.707 1386.9 437.138 1388.91C484.606 1397.23 533.866 1393.11 580.447 1404.56C583.549 1405.33 583.914 1407.19 585.263 1409.64C584.151 1413.04 585.043 1411.65 582.805 1413.95L580.324 1416.75C581.032 1419.54 581.619 1421.5 582.538 1424.22C558.683 1443.48 533.689 1467.28 510.11 1485.5C503.433 1493.21 449.203 1538.78 438.41 1547.07C434.827 1545.19 434.906 1545.47 433.005 1541.94L436.913 1541.92C447.424 1533.85 462.814 1523.85 459.252 1509.32C449.919 1503.4 438.646 1512.51 428.875 1511.3C416.339 1509.75 415.36 1518.49 404.098 1523.62C393.24 1517.04 374.336 1524.88 362.818 1518.61C360.399 1511.85 361.833 1482.9 362.003 1474.16C357.347 1470.49 324.616 1471.47 316.618 1471.37L316.187 1449.35C316.506 1443.84 316.177 1434.8 316.162 1429C325.216 1425.16 351.189 1427.16 362.193 1427.72C362.579 1417.72 363.003 1407.95 362.963 1397.93C363.041 1391.42 363.249 1389.01 364.402 1382.6C371.773 1380.94 399.918 1380.54 406.621 1384.11Z"/><path fill="#001655" transform="matrix(1.06157 0 0 1.06157 -81.7412 -1286.63)" d="M364.402 1382.6C371.773 1380.94 399.918 1380.54 406.621 1384.11C405.945 1398.35 406.415 1414.13 406.544 1428.5C421.403 1428.12 439.051 1428.71 453.087 1428.07C452.661 1442.54 452.616 1457.01 452.951 1471.48C441.105 1474.15 420.892 1472.59 407.135 1473.79C405.016 1485.31 405.2 1513.92 403.919 1518.03C391.821 1517.57 375.239 1518.38 362.818 1518.61C360.399 1511.85 361.833 1482.9 362.003 1474.16C357.347 1470.49 324.616 1471.47 316.618 1471.37L316.187 1449.35C316.506 1443.84 316.177 1434.8 316.162 1429C325.216 1425.16 351.189 1427.16 362.193 1427.72C362.579 1417.72 363.003 1407.95 362.963 1397.93C363.041 1391.42 363.249 1389.01 364.402 1382.6Z"/><path fill="#000C46" transform="matrix(1.06157 0 0 1.06157 -81.7412 -1286.63)" d="M364.402 1382.6C371.773 1380.94 399.918 1380.54 406.621 1384.11C405.945 1398.35 406.415 1414.13 406.544 1428.5C421.403 1428.12 439.051 1428.71 453.087 1428.07C452.661 1442.54 452.616 1457.01 452.951 1471.48C445.65 1469.99 418.819 1470.12 408.496 1469.55C414.593 1465.53 438.455 1466.78 446.024 1467.13C448.797 1420.9 439.15 1435.73 410.535 1435.79C395.254 1435.82 403.085 1400.08 397.812 1389.84C391.603 1388.3 377.873 1389.25 370.103 1389.1C369.685 1401.47 369.037 1411.64 367.791 1423.96L366.839 1423.79C365.068 1409.74 366.439 1395.94 364.402 1382.6Z"/><path fill="#000C46" transform="matrix(1.06157 0 0 1.06157 -81.7412 -1286.63)" d="M316.187 1449.35C316.506 1443.84 316.177 1434.8 316.162 1429C327.539 1430.83 353.39 1427.49 360.71 1432.4C355.33 1435.56 332.642 1434.1 324.657 1433.98C323.554 1445.35 323.972 1452.06 324.55 1463.57C339.433 1464.59 368.538 1461.49 368.737 1480.36C368.837 1489.85 369.609 1502.73 368.386 1512.08C377.753 1512.35 388.914 1512.97 398.058 1512.33C397.817 1501.92 397.775 1499.73 399.95 1489.32C404.527 1497.1 401.868 1509.44 403.919 1518.03C391.821 1517.57 375.239 1518.38 362.818 1518.61C360.399 1511.85 361.833 1482.9 362.003 1474.16C357.347 1470.49 324.616 1471.47 316.618 1471.37L316.187 1449.35Z"/><path fill="#01B9FE" transform="matrix(1.06157 0 0 1.06157 -81.7412 -1286.63)" d="M406.621 1384.11C407.576 1388.28 407.855 1389.96 409.477 1393.97C411.99 1390.8 410.381 1387.02 412.391 1381.35L412.698 1383.26C415.785 1396.96 412.263 1406.22 413.428 1420.13C425.48 1419.78 452.058 1423.48 456.941 1421.72C462.514 1426.6 459.367 1469.6 456.23 1476.94C444.182 1482.94 422.538 1474.51 412.738 1482.07C412.375 1487.62 411.065 1510.2 409.886 1514.58C407.572 1498.99 408.821 1487.07 407.135 1473.79C420.892 1472.59 441.105 1474.15 452.951 1471.48C452.616 1457.01 452.661 1442.54 453.087 1428.07C439.051 1428.71 421.403 1428.12 406.544 1428.5C406.415 1414.13 405.945 1398.35 406.621 1384.11Z"/><path fill="#01B9FE" transform="matrix(1.06157 0 0 1.06157 -81.7412 -1286.63)" d="M510.11 1485.5L508.513 1484.09C508.211 1481.96 507.793 1479.47 509.289 1477.81C518.92 1467.08 573.982 1416.28 582.805 1413.95L580.324 1416.75C581.032 1419.54 581.619 1421.5 582.538 1424.22C558.683 1443.48 533.689 1467.28 510.11 1485.5Z"/><defs><linearGradient id="gradient_2" gradientUnits="userSpaceOnUse" x1="303.92386" y1="1524.3606" x2="302.28043" y2="1371.1353"><stop offset="0" stop-color="#0070FF"/><stop offset="1" stop-color="#00CDFF"/></linearGradient></defs><path fill="url(#gradient_2)" transform="matrix(1.06157 0 0 1.06157 -81.7412 -1286.63)" d="M274.71 1416.7C274.836 1416.28 274.962 1415.85 275.087 1415.43C295.111 1365.24 309.625 1366.53 353.83 1381.74L354.994 1376.97C357.365 1382.67 358.626 1408.52 358.688 1415.9C359.875 1411.01 360.979 1399.89 362.963 1397.93C363.003 1407.95 362.579 1417.72 362.193 1427.72C351.189 1427.16 325.216 1425.16 316.162 1429C316.177 1434.8 316.506 1443.84 316.187 1449.35L316.618 1471.37C324.616 1471.47 357.347 1470.49 362.003 1474.16C356.88 1474.84 352.302 1474.55 348.821 1477.4C351.031 1480.37 350.142 1479.34 353.51 1481.37C355.006 1486.98 354.59 1516.97 354.352 1524.39L353.949 1523.09C352.024 1516.71 351.723 1513.52 350.972 1506.88C338.271 1504.98 336.966 1509.72 326.363 1502.28C311.632 1504.1 293.286 1512.85 278.484 1516.78C268.522 1519.42 260.97 1524.8 250.345 1527.36C249.631 1541.26 245.56 1545.08 244.727 1560.1L244.611 1562.4C243.045 1556.34 243.817 1516.45 243.229 1506.95C243.46 1482.02 260.049 1425.79 273.028 1404.36L271.98 1414.34C273.864 1416.61 272.811 1416.03 274.71 1416.7Z"/><path fill="#1995FD" transform="matrix(1.06157 0 0 1.06157 -81.7412 -1286.63)" d="M243.229 1506.95C243.46 1482.02 260.049 1425.79 273.028 1404.36L271.98 1414.34C273.864 1416.61 272.811 1416.03 274.71 1416.7C274.56 1417.61 265.052 1443.65 264.157 1445.57C251.485 1472.73 256.579 1499.95 250.345 1527.36C249.631 1541.26 245.56 1545.08 244.727 1560.1L244.611 1562.4C243.045 1556.34 243.817 1516.45 243.229 1506.95Z"/><path fill="#01B9FE" transform="matrix(1.06157 0 0 1.06157 -81.7412 -1286.63)" d="M353.83 1381.74L354.994 1376.97C357.365 1382.67 358.626 1408.52 358.688 1415.9C359.875 1411.01 360.979 1399.89 362.963 1397.93C363.003 1407.95 362.579 1417.72 362.193 1427.72C351.189 1427.16 325.216 1425.16 316.162 1429C316.177 1434.8 316.506 1443.84 316.187 1449.35C311.854 1454.16 312.794 1460.61 311.098 1467.53L309.942 1465.85C309.872 1454.39 308.842 1439.36 310.123 1428.28C312.244 1409.93 342.141 1425.96 353.987 1417.22C358.311 1404.2 352.062 1392.39 353.83 1381.74Z"/><path fill="#347DFD" transform="matrix(1.06157 0 0 1.06157 -81.7412 -1286.63)" d="M354.352 1524.39C354.59 1516.97 355.006 1486.98 353.51 1481.37C350.142 1479.34 351.031 1480.37 348.821 1477.4C352.302 1474.55 356.88 1474.84 362.003 1474.16C361.833 1482.9 360.399 1511.85 362.818 1518.61C374.336 1524.88 393.24 1517.04 404.098 1523.62L400.404 1525.83C404.063 1525.6 402.909 1525.51 406.59 1526.23C401.859 1529.69 358.607 1529.49 354.352 1524.39Z"/><path fill="#00E2FE" transform="matrix(1.06157 0 0 1.06157 -81.7412 -1286.63)" d="M361.78 1330.12C376.345 1326.99 430.459 1328.11 448.434 1328.24C492.623 1328.55 537.935 1328.08 582.04 1328.77C629.313 1327.62 677.866 1328.97 725.169 1329.86C740.848 1333.86 750.661 1335.82 764.654 1344.13L762.615 1346.83C757.014 1346.28 749.176 1345.79 744.893 1350.04C746.912 1354.27 751.041 1354.82 754.88 1357.98L754.613 1359.87C763.578 1357.16 775.699 1364.29 774.05 1375.28L771.59 1376.8C752.601 1365.53 752.741 1364.14 730.347 1358.96C713.33 1356.52 708.325 1356.25 691.164 1357.57C648.104 1362.84 614.155 1396.64 582.538 1424.22C581.619 1421.5 581.032 1419.54 580.324 1416.75L582.805 1413.95C585.043 1411.65 584.151 1413.04 585.263 1409.64C583.914 1407.19 583.549 1405.33 580.447 1404.56C533.866 1393.11 484.606 1397.23 437.138 1388.91C425.707 1386.9 422.662 1392.14 412.698 1383.26L412.391 1381.35C410.381 1387.02 411.99 1390.8 409.477 1393.97C407.855 1389.96 407.576 1388.28 406.621 1384.11C399.918 1380.54 371.773 1380.94 364.402 1382.6C363.249 1389.01 363.041 1391.42 362.963 1397.93C360.979 1399.89 359.875 1411.01 358.688 1415.9C358.626 1408.52 357.365 1382.67 354.994 1376.97L353.83 1381.74C309.625 1366.53 295.111 1365.24 275.087 1415.43C274.962 1415.85 274.836 1416.28 274.71 1416.7C272.811 1416.03 273.864 1416.61 271.98 1414.34L273.028 1404.36C278.874 1392.71 286.073 1381.79 294.474 1371.83C310.449 1352.69 336.076 1332.39 361.78 1330.12Z"/><path fill="#00ECFE" transform="matrix(1.06157 0 0 1.06157 -81.7412 -1286.63)" d="M361.78 1330.12C376.345 1326.99 430.459 1328.11 448.434 1328.24C492.623 1328.55 537.935 1328.08 582.04 1328.77C587.42 1332.68 593.421 1329.49 602.378 1332.53C588.717 1334.46 558.405 1333.52 543.469 1333.45C508.94 1333.29 474.411 1333.32 439.883 1333.54C425.056 1333.7 407.914 1331.5 394.032 1335.81C386.117 1338.26 367.537 1335.39 361.78 1330.12Z"/><path fill="#00C5FA" transform="matrix(1.06157 0 0 1.06157 -81.7412 -1286.63)" d="M691.164 1357.57C706.335 1349.05 737.859 1354.13 753.373 1361.04L754.613 1359.87C763.578 1357.16 775.699 1364.29 774.05 1375.28L771.59 1376.8C752.601 1365.53 752.741 1364.14 730.347 1358.96C713.33 1356.52 708.325 1356.25 691.164 1357.57Z"/><path fill="#00C5FA" transform="matrix(1.06157 0 0 1.06157 -81.7412 -1286.63)" d="M192.56 1402.87C204.987 1377.52 214.235 1362.05 232.599 1339.53C282.054 1279.25 353.467 1241.14 431.072 1233.6C523.011 1224.67 592.796 1248.79 662.938 1306.73C666.278 1312.59 666.392 1310.08 665.123 1314.78C657.106 1318.71 637.58 1311.93 625.824 1311.28C621.596 1311.33 617.387 1310.33 613.199 1309.56C600.537 1304.79 583.902 1294.23 569.139 1288.85C510.515 1267.45 455.786 1266.82 395.95 1280.06C334.571 1300.48 295.472 1327.71 254.131 1378.46L250.558 1376.32C250.117 1372.46 251.15 1371.19 252.708 1367.55C247.504 1370.11 224.413 1406.83 221.494 1414.91L216.815 1414.86C209.701 1410.69 206.091 1405.64 200.666 1399.42C196.901 1402.12 194.633 1408.77 192.583 1413.27L193.302 1410.18C190.983 1406.77 191.928 1408.58 192.56 1402.87Z"/><path fill="#00E2FE" transform="matrix(1.06157 0 0 1.06157 -81.7412 -1286.63)" d="M395.95 1280.06C392.38 1279.9 389.062 1280.4 386.528 1278.78L387.393 1279.01L388.731 1277.52C397.091 1277.35 398.728 1271.01 405.89 1268.42C409.323 1267.18 415.295 1266.3 419.113 1265.72C473.927 1257.54 529.932 1264.54 581.05 1285.95C595.1 1291.68 603.152 1292.62 612.503 1304.86C618.725 1307.65 633.789 1305.05 642.927 1307.14C630.564 1309.99 624.212 1308.22 613.199 1309.56C600.537 1304.79 583.902 1294.23 569.139 1288.85C510.515 1267.45 455.786 1266.82 395.95 1280.06Z"/><path fill="#000C46" transform="matrix(1.06157 0 0 1.06157 -81.7412 -1286.63)" d="M395.95 1280.06C455.786 1266.82 510.515 1267.45 569.139 1288.85C583.902 1294.23 600.537 1304.79 613.199 1309.56C617.387 1310.33 621.596 1311.33 625.824 1311.28L630.655 1314.65C624.524 1317.6 606.521 1313.78 600.851 1310.77C459.695 1235.91 288.134 1290.71 227.181 1441.17C215.634 1469.68 210.493 1501.74 209.999 1532.34C209.885 1550.33 213.881 1567.55 209.024 1584.32L206.865 1583.54C199.265 1541.52 202.168 1510.55 210.683 1469.41C208.891 1470.5 210.068 1469.87 207.01 1471.01C201.693 1465.1 208.962 1457.99 207.764 1448.73C206.911 1440.1 218.316 1423.29 221.494 1414.91C224.413 1406.83 247.504 1370.11 252.708 1367.55C251.15 1371.19 250.117 1372.46 250.558 1376.32L254.131 1378.46C295.472 1327.71 334.571 1300.48 395.95 1280.06Z"/><path fill="#01B9FE" transform="matrix(1.06157 0 0 1.06157 -81.7412 -1286.63)" d="M221.494 1414.91C224.413 1406.83 247.504 1370.11 252.708 1367.55C251.15 1371.19 250.117 1372.46 250.558 1376.32L254.131 1378.46C231.075 1413.31 222.095 1428.64 210.683 1469.41C208.891 1470.5 210.068 1469.87 207.01 1471.01C201.693 1465.1 208.962 1457.99 207.764 1448.73C206.911 1440.1 218.316 1423.29 221.494 1414.91Z"/><path fill="#000C46" transform="matrix(1.06157 0 0 1.06157 -81.7412 -1286.63)" d="M675.984 1317.49C689.786 1331.71 706.631 1327.16 725.169 1329.86C677.866 1328.97 629.313 1327.62 582.04 1328.77C537.935 1328.08 492.623 1328.55 448.434 1328.24C430.459 1328.11 376.345 1326.99 361.78 1330.12C336.076 1332.39 310.449 1352.69 294.474 1371.83C286.073 1381.79 278.874 1392.71 273.028 1404.36C260.049 1425.79 243.46 1482.02 243.229 1506.95C239.06 1529.59 236.613 1573.6 241.392 1596.27C241.675 1603.58 241.958 1604.3 239.583 1611L237.936 1610.82C234.32 1601.02 232.008 1578.26 232.014 1567.37C232.664 1495.92 244.287 1417.68 293.511 1362.56C337.13 1313.71 387.582 1320.4 447.161 1320.84L606.682 1322.09C626.002 1322.24 644.462 1323.29 663.631 1323.48C671.342 1323.55 671.821 1322.14 675.984 1317.49Z"/><path fill="#000C46" transform="matrix(1.06157 0 0 1.06157 -81.7412 -1286.63)" d="M245.677 1611.08C249.767 1620.64 253.8 1625.06 260.234 1633.2C256.128 1631.59 252.984 1630.27 249.003 1628.37C245.218 1632.44 245.54 1637.59 245.713 1643.25C245.761 1644.8 245.826 1646.36 245.91 1647.91L247.701 1649.49C248.395 1653.32 251.871 1661.89 249.937 1664.89C245.103 1656.69 243.633 1647.95 241.348 1638.96C236.958 1621.68 245.609 1628.1 245.677 1611.08Z"/><path fill="#2C5CFD" transform="matrix(1.06157 0 0 1.06157 -81.7412 -1286.63)" d="M615.599 1609.28C626.535 1591.89 650.93 1566.36 669.475 1556.91C685.707 1548.63 700.389 1551.08 716.561 1556.75C727.755 1568.97 733.042 1581.88 740.093 1596.68C748.705 1607.4 756.625 1615.36 766.232 1625.19C762.286 1641.66 750.471 1674.03 749.42 1687.54C743.45 1708.51 734.061 1729.77 727.35 1750.66C725.604 1756.1 722.107 1767.55 717.328 1770.63C709.593 1775.14 686.813 1768.15 680.91 1763.9C657.47 1745.18 606.944 1735.88 592.828 1715.96C582.969 1702.04 598.501 1659.46 604.048 1642.12C608.625 1630.91 609.999 1621.03 615.599 1609.28Z"/><path fill="#00C5FA" transform="matrix(1.06157 0 0 1.06157 -81.7412 -1286.63)" d="M615.599 1609.28C626.535 1591.89 650.93 1566.36 669.475 1556.91C685.707 1548.63 700.389 1551.08 716.561 1556.75C727.755 1568.97 733.042 1581.88 740.093 1596.68C746.795 1616.04 765.31 1618.24 760.06 1637.85C759.534 1639.82 758.91 1639.46 756.891 1640.29C754.311 1633.31 754.403 1626.81 749.983 1622.18C732.556 1616.71 741.391 1611.78 730.481 1601.42C719.67 1600.17 715.464 1613.3 705.318 1604.64L704.701 1602.5C696.457 1602.84 692.429 1606.31 684.283 1604.89C690.712 1600.52 687.773 1605.9 694.845 1599.55C680.117 1599.28 677.178 1596.77 674.641 1582.56C674.204 1587.15 674.153 1589.06 672.763 1593.57C671.772 1593.68 672.551 1593.66 669.719 1593.32L672.276 1593.46L672.517 1592.88L669.203 1590.71L669.299 1592.24C668.655 1586.55 668.629 1580.52 665.624 1575.81C654.36 1571 622.76 1610.91 617.157 1620.49L616.217 1620.67C616.004 1616.91 615.732 1613.04 615.599 1609.28Z"/><path fill="#001655" transform="matrix(1.06157 0 0 1.06157 -81.7412 -1286.63)" d="M674.641 1582.56C697.87 1561.74 716.603 1588.47 694.845 1599.55C680.117 1599.28 677.178 1596.77 674.641 1582.56Z"/><path fill="#000C46" transform="matrix(1.06157 0 0 1.06157 -81.7412 -1286.63)" d="M686.84 1580.09C692.349 1580.14 695.075 1581.14 697.491 1586.3C696.49 1590.37 697.529 1588.67 693.953 1591.37C687.959 1592.09 686.183 1592.55 682.306 1588.19C683.09 1582.42 682.117 1585.22 686.84 1580.09Z"/><path fill="#000C46" transform="matrix(1.06157 0 0 1.06157 -81.7412 -1286.63)" d="M646.738 1645.75C647.058 1644.76 647.393 1643.78 647.742 1642.81C657.294 1616.38 681.958 1617.49 704.1 1626.18C708.43 1632.46 709.942 1633.29 709.218 1640.77C703.055 1649.22 693.463 1643.26 686.635 1638.27C684.595 1636.76 682.582 1635.22 680.599 1633.64C675.098 1638.54 670.391 1641.81 667.247 1648.37L667.467 1651.37C683.308 1659.93 712.717 1673.08 703.205 1695.97C699.186 1705.64 681.805 1714.93 672.151 1718.25C658.872 1715.01 630.56 1704.16 632.277 1687.74C635.152 1683.14 633.214 1684.66 638.175 1682.87C655.15 1685.17 663.953 1708.41 680.717 1696.21C683.755 1692.34 683.589 1692.61 684.934 1687.87C680.856 1669.52 648.669 1676.77 646.738 1645.75Z"/><defs><linearGradient id="gradient_3" gradientUnits="userSpaceOnUse" x1="655.86523" y1="1617.4569" x2="677.18628" y2="1582.4158"><stop offset="0" stop-color="#00ACFF"/><stop offset="1" stop-color="#01C3FF"/></linearGradient></defs><path fill="url(#gradient_3)" transform="matrix(1.06157 0 0 1.06157 -81.7412 -1286.63)" d="M615.599 1609.28C615.732 1613.04 616.004 1616.91 616.217 1620.67L617.157 1620.49C622.76 1610.91 654.36 1571 665.624 1575.81C668.629 1580.52 668.655 1586.55 669.299 1592.24L669.203 1590.71L672.517 1592.88L672.276 1593.46L669.719 1593.32C672.551 1593.66 671.772 1593.68 672.763 1593.57C674.153 1589.06 674.204 1587.15 674.641 1582.56C677.178 1596.77 680.117 1599.28 694.845 1599.55C687.773 1605.9 690.712 1600.52 684.283 1604.89C692.429 1606.31 696.457 1602.84 704.701 1602.5L705.318 1604.64C699.24 1606.73 697.917 1605.99 694.748 1610.14C699.139 1624.56 729.689 1625.32 716.359 1644.95L714.53 1645.39C711.139 1637.09 713.09 1629.3 704.1 1626.18C681.958 1617.49 657.294 1616.38 647.742 1642.81C647.393 1643.78 647.058 1644.76 646.738 1645.75C645.001 1650.46 645.844 1649.99 642.402 1652.97C639.481 1648.68 639.89 1645.96 639.09 1640.38C641.756 1636.48 643.322 1634.23 645.515 1629.98C642.77 1624.69 642.331 1630.74 634.077 1624.82L634.338 1622.91C645.588 1622.51 656.78 1622.86 664.12 1612.86C654.742 1605.03 634.899 1598.79 626.533 1610.28C619.357 1620.13 624.107 1636.49 609.836 1640.27C608.649 1643.13 610.013 1645.19 611.023 1649.01L609.968 1650.66C604.665 1647.26 606.387 1649.07 604.048 1642.12C608.625 1630.91 609.999 1621.03 615.599 1609.28Z"/><path fill="#347DFD" transform="matrix(1.06157 0 0 1.06157 -81.7412 -1286.63)" d="M639.09 1640.38C639.89 1645.96 639.481 1648.68 642.402 1652.97C645.844 1649.99 645.001 1650.46 646.738 1645.75C648.669 1676.77 680.856 1669.52 684.934 1687.87C683.589 1692.61 683.755 1692.34 680.717 1696.21C677.463 1695.1 678.471 1695.61 675.674 1693.12C675.714 1692.73 676.26 1687.47 676.372 1687.77C672.89 1678.37 649.2 1678.05 644.113 1666.38C646.608 1667.61 647.706 1668.21 650.114 1669.74L652.127 1671.03C646.469 1662.6 645.001 1662.43 638.037 1655.57C636.505 1650.53 638.064 1645.68 639.09 1640.38Z"/><path fill="#5235FD" transform="matrix(1.06157 0 0 1.06157 -81.7412 -1286.63)" d="M609.87 1750.24C625.409 1759.88 635.307 1764.87 652.785 1770.67L654.605 1773.23C651.593 1775.4 646.321 1779.64 643.159 1780.65C624.639 1782.61 607.455 1782 589.853 1786.5C531.406 1801.42 496.029 1826.82 434.485 1804.66C424.162 1800.94 409.959 1799.14 399.908 1792.89L404.279 1792.05C409.492 1794.33 434.083 1800.68 439.285 1800.25C427.855 1791.69 406.389 1784.3 392.561 1782.97C370.498 1780.84 356.119 1769.65 336.944 1760.56C331.536 1757.99 333.755 1761.68 330.521 1754.57L332.512 1751.28C405.111 1790.17 474.804 1797.64 555.127 1774.99C574.468 1769.53 592.194 1759.7 609.87 1750.24Z"/><path fill="#5235FD" transform="matrix(1.06157 0 0 1.06157 -81.7412 -1286.63)" d="M829.965 1496.64C837.354 1507.48 838.784 1522.11 848.053 1532.41L850.703 1532.86C853.097 1529.33 852.432 1524.86 852.453 1520.33C864.967 1573.13 870.795 1641.97 803.295 1657.04L801.689 1656.97C792.056 1656.25 782.599 1656.58 772.958 1657.04L771.583 1654.92C777.483 1626.34 767.466 1628.56 797.022 1624.59C856.302 1616.64 834.478 1535.41 829.965 1496.64Z"/><path fill="#000C46" transform="matrix(1.06157 0 0 1.06157 -81.7412 -1286.63)" d="M691.164 1357.57C708.325 1356.25 713.33 1356.52 730.347 1358.96L735.941 1363.72L734.775 1364.81C684.565 1360.32 660.424 1366.54 621.307 1399.09C593.595 1422.15 432.34 1567.17 420.308 1568.28L417.756 1565.23C424.813 1559.24 431.711 1553.48 438.41 1547.07C449.203 1538.78 503.433 1493.21 510.11 1485.5C533.689 1467.28 558.683 1443.48 582.538 1424.22C614.155 1396.64 648.104 1362.84 691.164 1357.57Z"/><path fill="#001655" transform="matrix(1.06157 0 0 1.06157 -81.7412 -1286.63)" d="M254.856 1666.17C262.874 1677.6 274.907 1692.92 274.857 1706.86C263.086 1696.19 255.5 1687.67 246.324 1674.89C250.218 1675.36 248.785 1675.57 252.434 1674.45L254.856 1666.17Z"/><path fill="#000C46" transform="matrix(1.06157 0 0 1.06157 -81.7412 -1286.63)" d="M485.041 1559.01L537.419 1559.09C538.528 1562.91 538.941 1563.07 538.929 1566.87C536.805 1576.15 537.545 1586.79 537.697 1596.42C539.454 1608.72 537.765 1638.59 537.264 1652.43C530.409 1657.81 524.825 1661.91 517.615 1666.8L515.567 1668.86C510.004 1682.77 491.459 1684.79 480.136 1702.06C482.477 1704.45 481.19 1703.61 483.858 1704.79L499.656 1695.49C522.941 1677.66 558.92 1656.19 585.036 1636.97C581.031 1650.23 577.858 1662.37 574.504 1675.75C568.511 1703.51 566.927 1710.6 540.999 1724.95C534.392 1738.34 496.881 1744.18 483.102 1745.71C459.901 1748.3 436.288 1744.52 413.082 1746.29L410.79 1746.48C405.892 1742.05 403.93 1740.71 402.454 1735.17L405.946 1734.14L406.676 1732.36L403.042 1727.42C406.142 1712.18 405.471 1647.04 405.751 1625.9L407.538 1624.34L410.37 1618.91L411.192 1616.62C419.412 1612.55 454.481 1613.83 464.824 1614.59L464.395 1622.33C465.322 1641.81 464.434 1659.88 464.491 1679.22C465.545 1683.35 466.429 1688.62 468.769 1691.99C469.459 1686.65 469.505 1681.56 472.541 1677.75C474.384 1681.84 473.518 1680.96 476.405 1684.06L477.831 1682.31C477.716 1678.43 477.711 1677.74 478.516 1673.93C483.317 1651.19 479.36 1622.75 481.726 1599.22L481.872 1597.89C482.549 1589.34 482.41 1570.22 481.148 1562.04L485.041 1559.01Z"/><path fill="#5235FD" transform="matrix(1.06157 0 0 1.06157 -81.7412 -1286.63)" d="M499.656 1695.49C522.941 1677.66 558.92 1656.19 585.036 1636.97C581.031 1650.23 577.858 1662.37 574.504 1675.75C568.511 1703.51 566.927 1710.6 540.999 1724.95C499.255 1742.52 458.617 1744.47 413.585 1739.17C429.663 1733.4 471.45 1715.03 483.858 1704.79L499.656 1695.49Z"/><path fill="#2C5CFD" transform="matrix(1.06157 0 0 1.06157 -81.7412 -1286.63)" d="M499.656 1695.49C522.941 1677.66 558.92 1656.19 585.036 1636.97C581.031 1650.23 577.858 1662.37 574.504 1675.75C571.338 1675.53 566.097 1675.53 563.43 1674.45L569.86 1671.15C570.452 1667.37 570.29 1669.26 570.354 1665.47L572.003 1663.17L571.477 1660.59C555.811 1667.13 518.954 1696.13 502.82 1698.21C501.858 1697.42 500.434 1696.37 499.656 1695.49Z"/><path fill="#5235FD" transform="matrix(1.06157 0 0 1.06157 -81.7412 -1286.63)" d="M410.37 1618.91L411.192 1616.62C419.412 1612.55 454.481 1613.83 464.824 1614.59L464.395 1622.33C465.322 1641.81 464.434 1659.88 464.491 1679.22L464.826 1698.4C450.888 1710.65 426.44 1720.98 409.461 1727.66C409.981 1701.36 411.04 1649.87 407.538 1624.34L410.37 1618.91Z"/><path fill="#1995FD" transform="matrix(1.06157 0 0 1.06157 -81.7412 -1286.63)" d="M410.37 1618.91L411.192 1616.62C419.412 1612.55 454.481 1613.83 464.824 1614.59L464.395 1622.33C463.308 1629.15 462.894 1642.95 460.618 1647.28L458.397 1646.9L456.214 1643.6C453.276 1643.07 420.474 1642.69 417.945 1643.67L414.082 1652.68L412.512 1652.93C411.089 1640 410.267 1631.82 410.37 1618.91Z"/><path fill="#347DFD" transform="matrix(1.06157 0 0 1.06157 -81.7412 -1286.63)" d="M464.824 1614.59L464.395 1622.33C463.308 1629.15 462.894 1642.95 460.618 1647.28L458.397 1646.9L456.214 1643.6C456.979 1636.68 458.048 1637.07 455.544 1631.77C449.216 1628.2 440.177 1631.37 435.899 1629.8C427.395 1626.7 431.538 1626.51 420.337 1624.76L418.405 1624.48L420.044 1622.8C429.807 1621.27 450.338 1620.88 459.913 1622.76C463.703 1620.82 462.847 1619.99 464.824 1614.59Z"/><defs><linearGradient id="gradient_4" gradientUnits="userSpaceOnUse" x1="508.60208" y1="1588.0618" x2="509.07159" y2="1567.1372"><stop offset="0" stop-color="#08A4FF"/><stop offset="1" stop-color="#03BBFF"/></linearGradient></defs><path fill="url(#gradient_4)" transform="matrix(1.06157 0 0 1.06157 -81.7412 -1286.63)" d="M485.041 1559.01L537.419 1559.09C538.528 1562.91 538.941 1563.07 538.929 1566.87C536.805 1576.15 537.545 1586.79 537.697 1596.42C536.928 1606.52 536.985 1619.79 534.784 1629.07L533.359 1630.13C526.633 1621.53 523.97 1618.92 512.659 1617.92C506.506 1617.43 500.316 1617.65 494.214 1618.57L488.625 1625.67L486.894 1625.81C485.302 1620.68 484.403 1617.13 483.25 1611.88C482.249 1607.06 482.98 1604.75 483.761 1599.94L481.872 1597.89C482.549 1589.34 482.41 1570.22 481.148 1562.04L485.041 1559.01Z"/><path fill="#347DFD" transform="matrix(1.06157 0 0 1.06157 -81.7412 -1286.63)" d="M537.419 1559.09C538.528 1562.91 538.941 1563.07 538.929 1566.87C536.805 1576.15 537.545 1586.79 537.697 1596.42C536.928 1606.52 536.985 1619.79 534.784 1629.07L533.359 1630.13C526.633 1621.53 523.97 1618.92 512.659 1617.92C506.506 1617.43 500.316 1617.65 494.214 1618.57L488.625 1625.67L486.894 1625.81C485.302 1620.68 484.403 1617.13 483.25 1611.88C482.249 1607.06 482.98 1604.75 483.761 1599.94C485.051 1603.81 485.796 1607.52 486.455 1611.53L487.899 1611.78C489.063 1609.13 490.104 1606.89 491.404 1604.31C497.092 1603.02 526.237 1605.19 531.734 1608.19L533.345 1612.55C536.866 1607.08 536.026 1581 535.3 1573.53L537.419 1559.09Z"/><path fill="#1995FD" transform="matrix(1.06157 0 0 1.06157 -81.7412 -1286.63)" d="M481.148 1562.04L485.041 1559.01C484.795 1568.37 484.231 1586.04 487.501 1594.73L488.281 1594.55C495.554 1589.69 523.81 1591.58 530.723 1597.77C532.737 1602.44 532.681 1602.98 531.734 1608.19C526.237 1605.19 497.092 1603.02 491.404 1604.31C490.104 1606.89 489.063 1609.13 487.899 1611.78L486.455 1611.53C485.796 1607.52 485.051 1603.81 483.761 1599.94L481.872 1597.89C482.549 1589.34 482.41 1570.22 481.148 1562.04Z"/><path fill="#00C5FA" transform="matrix(1.06157 0 0 1.06157 -81.7412 -1286.63)" d="M485.041 1559.01L537.419 1559.09L535.3 1573.53L534.945 1575.7C534.295 1579.89 534.178 1584.57 533.974 1588.83L532.807 1589.53C530.032 1582.9 529.543 1580.95 528.158 1573.87L531.094 1569.09L530.366 1566.83C525.485 1565.39 496.937 1565.25 492.568 1566.68C491.107 1568.62 488.462 1585.45 487.062 1590.82L488.281 1594.55L487.501 1594.73C484.231 1586.04 484.795 1568.37 485.041 1559.01Z"/><path fill="#3850FD" transform="matrix(1.06157 0 0 1.06157 -81.7412 -1286.63)" d="M537.697 1596.42C539.454 1608.72 537.765 1638.59 537.264 1652.43C530.409 1657.81 524.825 1661.91 517.615 1666.8L512.038 1664.5C502.724 1667.13 502.216 1672.21 495.102 1675.25C485.889 1666.91 494.346 1659.52 490.145 1648.5L487.922 1647.63L485.616 1654.88L483.208 1654.37C482.752 1641.09 483.208 1625.36 483.25 1611.88C484.403 1617.13 485.302 1620.68 486.894 1625.81L488.625 1625.67L494.214 1618.57C500.316 1617.65 506.506 1617.43 512.659 1617.92C523.97 1618.92 526.633 1621.53 533.359 1630.13L534.784 1629.07C536.985 1619.79 536.928 1606.52 537.697 1596.42Z"/><path fill="#2C5CFD" transform="matrix(1.06157 0 0 1.06157 -81.7412 -1286.63)" d="M483.208 1654.37L485.616 1654.88L487.922 1647.63L490.145 1648.5C494.346 1659.52 485.889 1666.91 495.102 1675.25C502.216 1672.21 502.724 1667.13 512.038 1664.5L517.615 1666.8L515.567 1668.86C506.637 1673.21 491.532 1683.14 482.604 1688.63C482.555 1677.21 482.756 1665.78 483.208 1654.37Z"/><path fill="#1995FD" transform="matrix(1.06157 0 0 1.06157 -81.7412 -1286.63)" d="M556.773 1516.73C556.367 1511.62 555.59 1508.44 557.609 1503.75C564.908 1500.47 605.985 1500.99 614.481 1502.82L615.141 1503.66L617.755 1506.35C614.809 1528.63 620.336 1555.72 615.357 1577.52C614.659 1580.58 610.054 1584.66 607.59 1586.79C601.482 1590.89 600.196 1592.43 594.979 1597.83C593.921 1602.57 592.899 1607.66 591.575 1612.29C579.011 1620.43 568.041 1629.31 555.815 1637.44C555.926 1624.74 555.738 1610.7 556.257 1598.12C556.94 1571.06 555.971 1543.98 556.773 1516.73Z"/><path fill="#2C5CFD" transform="matrix(1.06157 0 0 1.06157 -81.7412 -1286.63)" d="M556.773 1516.73C559.071 1527.32 559.376 1586.13 560.605 1603.05C561.174 1598.97 563.538 1578.99 564.957 1576.88L566.125 1584.15C571.345 1584.68 595.894 1569.51 594.243 1591.41C598.038 1588.85 598.053 1586 599.317 1580.75C601.773 1582.89 601.712 1582.92 603.493 1585.68L607.59 1586.79C601.482 1590.89 600.196 1592.43 594.979 1597.83C593.921 1602.57 592.899 1607.66 591.575 1612.29C579.011 1620.43 568.041 1629.31 555.815 1637.44C555.926 1624.74 555.738 1610.7 556.257 1598.12C556.94 1571.06 555.971 1543.98 556.773 1516.73Z"/><path fill="#01B9FE" transform="matrix(1.06157 0 0 1.06157 -81.7412 -1286.63)" d="M614.481 1502.82L615.141 1503.66C615.272 1517.76 614.41 1554.29 612.836 1567.35C608.793 1566.13 612.995 1545.13 608.063 1538.79C596.306 1533.18 598.025 1534.63 586.82 1531.92C595.27 1524.85 601.048 1536.63 608.326 1528.83C608.33 1521.75 604.449 1520.04 604.359 1514.57L606.481 1515.52L607.25 1514.69L605.396 1513.04C590.854 1515.93 577.351 1510.24 566.954 1512.85C564.885 1529.37 565.026 1545.55 560.591 1561.2L561.135 1559.45L560.469 1560.04C560.777 1542.87 559.186 1522.1 558.844 1504.36C575.566 1503.93 598.642 1504.6 614.481 1502.82Z"/><path fill="#5235FD" transform="matrix(1.06157 0 0 1.06157 -81.7412 -1286.63)" d="M341.222 1674.75C355.937 1674.91 373.566 1675.55 388.023 1674.57C389.57 1679.45 389.379 1696.23 389.392 1702.42C389.417 1714.07 391.934 1727.26 385.414 1737.21C376.993 1743.33 355.116 1740.19 342.454 1740.09C340.73 1729.17 337.771 1684.09 341.222 1674.75Z"/><path fill="#3850FD" transform="matrix(1.06157 0 0 1.06157 -81.7412 -1286.63)" d="M341.222 1674.75C355.937 1674.91 373.566 1675.55 388.023 1674.57L385.828 1686.88C374.978 1679.92 365.802 1687.33 354.86 1683.16C351.431 1681.86 352.696 1681.69 348.963 1682.15C346.058 1685.69 344.783 1697.42 343.877 1702.63C343.518 1692.33 343.595 1684.81 341.222 1674.75Z"/><path fill="#001655" transform="matrix(1.06157 0 0 1.06157 -81.7412 -1286.63)" d="M697.885 1379.74C709.544 1378.04 721.146 1383.16 727.745 1392.93C734.343 1402.69 734.774 1415.36 728.852 1425.55C724.174 1433.6 716.096 1439.09 706.891 1440.48C696.375 1442.06 685.787 1438.09 678.905 1429.99C671.68 1421.48 669.645 1409.71 673.59 1399.27C677.535 1388.83 686.838 1381.35 697.885 1379.74Z"/><path fill="#00E2FE" transform="matrix(1.06157 0 0 1.06157 -81.7412 -1286.63)" d="M679.324 1401.76C682.74 1392.76 691.076 1386.58 700.675 1385.91C710.274 1385.25 719.381 1390.23 724 1398.67C728.619 1407.11 727.907 1417.47 722.175 1425.2C720.266 1427.77 717.874 1429.95 715.133 1431.61C709.106 1435.25 701.809 1436.15 695.081 1434.06C688.352 1431.98 682.836 1427.12 679.924 1420.71C677.206 1414.72 676.99 1407.9 679.324 1401.76Z"/><path fill="#01B9FE" transform="matrix(1.06157 0 0 1.06157 -81.7412 -1286.63)" d="M679.924 1420.71C677.206 1414.72 676.99 1407.9 679.324 1401.76C679.963 1407.86 679.039 1409.59 682.212 1413.47C692.197 1411.08 706.175 1397.47 717.617 1411.43C719.06 1419.57 714.765 1422.52 722.175 1425.2C720.266 1427.77 717.874 1429.95 715.133 1431.61C709.106 1435.25 701.809 1436.15 695.081 1434.06C688.352 1431.98 682.836 1427.12 679.924 1420.71Z"/><path fill="#1995FD" transform="matrix(1.06157 0 0 1.06157 -81.7412 -1286.63)" d="M679.924 1420.71C683.923 1417.69 685.153 1415.43 689.106 1416.33C696.36 1417.98 699.75 1417.38 704.989 1422.57L706.409 1426.18C705.071 1428.84 705.351 1428.47 703.522 1430.87L715.133 1431.61C709.106 1435.25 701.809 1436.15 695.081 1434.06C688.352 1431.98 682.836 1427.12 679.924 1420.71Z"/><path fill="#001655" transform="matrix(1.06157 0 0 1.06157 -81.7412 -1286.63)" d="M640.495 1432.21C680.095 1425.43 684.384 1449.03 673.345 1480.64C666.029 1485.71 664.239 1487 656.014 1490.43C620.155 1498.3 604.073 1446.33 640.495 1432.21Z"/><path fill="#347DFD" transform="matrix(1.06157 0 0 1.06157 -81.7412 -1286.63)" d="M628.269 1449.92C638.986 1433.75 663.746 1430.09 672.561 1448.15C682.288 1478.62 644.518 1500.03 626.945 1470.41C626.777 1462.46 626.207 1457.66 628.269 1449.92Z"/><path fill="#00C5FA" transform="matrix(1.06157 0 0 1.06157 -81.7412 -1286.63)" d="M628.269 1449.92C638.986 1433.75 663.746 1430.09 672.561 1448.15C671.965 1454.8 671.97 1461.06 669.331 1467.08L667.263 1467.04C666.22 1460.83 666.453 1455.87 660.825 1452.65C652.066 1452.39 642.519 1452.29 634.473 1456.12C631.494 1457.54 632.593 1457.36 629.394 1458.05L628.269 1449.92Z"/><path fill="#5235FD" transform="matrix(1.06157 0 0 1.06157 -81.7412 -1286.63)" d="M684.233 1480.44C692.156 1476.77 710.45 1471.79 716.364 1479.93L713.793 1481.68C735.752 1495.6 727.615 1522.42 703.149 1525.2C706.496 1527.96 708.929 1526.18 714.665 1528.07L713.529 1529.93C704.977 1531.57 698.717 1530.53 690.066 1529.8C685.158 1525.61 681.133 1522.67 675.87 1518.92C675.227 1515.19 674.671 1511.45 674.203 1507.7C672.656 1494.9 676.893 1489.9 684.233 1480.44Z"/><path fill="#001655" transform="matrix(1.06157 0 0 1.06157 -81.7412 -1286.63)" d="M684.233 1480.44C692.156 1476.77 710.45 1471.79 716.364 1479.93L713.793 1481.68C704.125 1480.93 693.191 1479.9 686.354 1487.63C669.093 1507.14 683.192 1521.35 703.149 1525.2C706.496 1527.96 708.929 1526.18 714.665 1528.07L713.529 1529.93C704.977 1531.57 698.717 1530.53 690.066 1529.8C685.158 1525.61 681.133 1522.67 675.87 1518.92C675.227 1515.19 674.671 1511.45 674.203 1507.7C672.656 1494.9 676.893 1489.9 684.233 1480.44Z"/><path fill="#3850FD" transform="matrix(1.06157 0 0 1.06157 -81.7412 -1286.63)" d="M726.801 1464.39C727.713 1455.09 729.589 1445.2 737.91 1439.91C768.951 1420.17 785.683 1458.84 755.869 1480.17C738.858 1482.02 735.846 1478.32 726.801 1464.39Z"/><path fill="#001655" transform="matrix(1.06157 0 0 1.06157 -81.7412 -1286.63)" d="M556.257 1598.12L553.471 1597.48C549.87 1592.37 550.137 1506.03 553.964 1499.2C563.252 1494.75 612.71 1493.79 620.368 1500.23C626.665 1511.46 623.892 1557.88 621.706 1572.1L619.841 1573.75L621.259 1574.19L620.388 1576.67L619.732 1576.68L620.689 1573.25C617.29 1570.74 619.796 1516.69 617.755 1506.35L615.141 1503.66L614.481 1502.82C605.985 1500.99 564.908 1500.47 557.609 1503.75C555.59 1508.44 556.367 1511.62 556.773 1516.73C555.971 1543.98 556.94 1571.06 556.257 1598.12Z"/><path fill="#001655" transform="matrix(1.06157 0 0 1.06157 -81.7412 -1286.63)" d="M481.148 1562.04C476.802 1578.82 484.07 1611.14 479.079 1624.45C478.885 1624.1 476.969 1608.47 477.012 1608.16C479.04 1593.04 468.485 1555.8 489.815 1552.26C503.383 1551.63 521.037 1553.52 535.127 1553.3C537.963 1553.27 541.413 1558.1 542.01 1560.14C545.626 1572.55 544.027 1605.02 542.477 1617.39C539.25 1607.28 540.767 1579.07 538.929 1566.87C538.941 1563.07 538.528 1562.91 537.419 1559.09L485.041 1559.01L481.148 1562.04Z"/><path fill="#001655" transform="matrix(1.06157 0 0 1.06157 -81.7412 -1286.63)" d="M739.448 1487.4C738.045 1486.25 736.653 1485.08 735.274 1483.89C726.013 1475.91 724.217 1471.01 723.327 1458.28L726.025 1457.17L723.439 1456.5L723.754 1454.62L725.311 1454.17L725.783 1454.45L726.801 1464.39C735.846 1478.32 738.858 1482.02 755.869 1480.17L759.417 1482.55C756.623 1485.07 748.164 1483.07 741.387 1484.72C746.259 1487.02 749.724 1486.73 755.092 1486.99L754.928 1488.37C750.002 1489.54 744.58 1488.2 739.448 1487.4Z"/><path fill="#5235FD" transform="matrix(1.06157 0 0 1.06157 -81.7412 -1286.63)" d="M2709.41 1425.42C2766 1427.74 2831.67 1420.87 2887.11 1431.29C2932.56 1439.83 2958.94 1483.33 2959.24 1527.57C2959.52 1570.27 2961.55 1601.14 2930.13 1635.28C2895.74 1666.17 2843.63 1660.68 2800.44 1660.56L2709.31 1660.31C2707.5 1624.33 2709.16 1575.2 2708.93 1538.27C2708.74 1506.86 2707.39 1455.45 2709.41 1425.42ZM2769.72 1611.53C2801 1611.58 2859.71 1617.22 2882.68 1597.28C2903.98 1571.59 2906.92 1514.32 2880.51 1491.52C2855.4 1469.86 2801.66 1479.34 2769.53 1477.33L2769.72 1611.53Z"/><path fill="white" transform="matrix(1.06157 0 0 1.06157 -81.7412 -1286.63)" d="M1612.47 1544.99C1637.71 1506.89 1663.24 1467.27 1688.62 1429.25C1692.82 1422.97 1744.27 1425.55 1755.42 1425.06C1752.46 1501.79 1756.18 1583.29 1754.47 1660.62C1734.35 1660.19 1713.16 1660.52 1692.95 1660.52L1693.04 1613.89L1692.96 1529.99C1672.31 1557.72 1653.42 1595 1633.24 1620.65C1623.29 1621.55 1608.21 1620.81 1596.76 1621.38C1576.17 1592.57 1557.59 1559.2 1537.1 1529.85C1536.07 1568.95 1535.98 1621.72 1537.25 1660.51L1472.22 1660.45C1473.91 1640.19 1473.2 1612.66 1473.15 1592.07L1472.84 1483.51C1472.81 1472.41 1471.89 1433.75 1474.08 1425.22C1493.66 1426.34 1517.9 1425.69 1537.98 1425.9C1557.93 1462.81 1594.08 1507.39 1612.47 1544.99Z"/><path fill="white" transform="matrix(1.06157 0 0 1.06157 -81.7412 -1286.63)" d="M983.378 1426.13C1010.08 1424.27 1044.48 1425.57 1071.92 1425.32C1089.47 1425.15 1125.96 1424.51 1141.8 1426.72C1145.89 1431.09 1144.39 1466.89 1144.65 1475.9C1097.2 1473 1038.14 1473.88 990.938 1478C943.897 1482.12 940.031 1573.18 966.77 1598.16C988.493 1618.45 1052.41 1612.01 1082.84 1611.41C1082.01 1599.65 1083.39 1581.37 1083.95 1569.14C1065.45 1569.09 1046.95 1569.14 1028.44 1569.3C1029.33 1554.42 1026.67 1536.98 1030.53 1524.83C1034.65 1521.04 1033.58 1522.28 1040.84 1521.98L1144.03 1522.2C1143.23 1559.01 1142.08 1624.97 1144.58 1660.35L1035.29 1660.57C1011.14 1660.59 982.213 1662.28 958.807 1657.89C916.008 1649.06 889.858 1615.68 886.913 1573.37C881.505 1495.7 892.066 1433.72 983.378 1426.13Z"/><path fill="white" transform="matrix(1.06157 0 0 1.06157 -81.7412 -1286.63)" d="M1261.72 1425.33C1293.08 1425.71 1324.44 1425.68 1355.8 1425.24C1363.79 1439.33 1377.47 1476.89 1384.12 1493.63C1401.71 1538.58 1421.82 1582.66 1438.77 1627.83C1442.43 1637.59 1453.82 1649.86 1446.99 1658.52C1436.37 1662.62 1400.01 1660.58 1387.17 1660.26C1368.26 1659.78 1381.21 1620.94 1356.81 1618.73C1321.27 1619.19 1285.73 1619.31 1250.19 1619.11C1244.05 1632.53 1238.7 1646.17 1234.88 1660.42L1164.66 1660.44C1173.44 1643.82 1184.54 1614.44 1191.92 1596.37L1236.84 1485.51C1243.04 1469.84 1253.96 1438.51 1261.72 1425.33ZM1311.02 1572.52L1347.74 1572.53C1336.84 1549.27 1321.48 1503.35 1310.26 1477.79C1308.98 1477.05 1307.71 1476.32 1306.44 1475.59C1302.58 1491.84 1271.51 1562.89 1273.08 1570.94C1283.17 1573.48 1300.27 1572.62 1311.02 1572.52Z"/><defs><linearGradient id="gradient_5" gradientUnits="userSpaceOnUse" x1="2566.7222" y1="1670.1459" x2="2517.176" y2="1417.8839"><stop offset="0" stop-color="#4D31FF" stop-opacity="0.98823529"/><stop offset="1" stop-color="#7750FF"/></linearGradient></defs><path fill="url(#gradient_5)" transform="matrix(1.06157 0 0 1.06157 -81.7412 -1286.63)" d="M2422.65 1425.18C2441.75 1425.99 2459 1426.06 2478.13 1425.91C2508.66 1460.23 2539.69 1494.28 2569 1529.64C2580.93 1544.03 2594.98 1559.25 2605.46 1574.56C2605.53 1565.1 2605.69 1556.81 2604.85 1547.37C2606.04 1513.44 2604.91 1474.35 2604.98 1439.92C2615.19 1423.18 2652.35 1437 2663.44 1432.84C2660.8 1504.44 2663.15 1587.59 2663 1660.42L2607.96 1660.38C2564.36 1611.8 2523.54 1563.75 2480.71 1514.9C2480.32 1558.94 2480.28 1602.98 2480.61 1647.02L2478.34 1651.15C2466.49 1653.79 2437.82 1654.44 2426.26 1650.73L2423.09 1646.18C2423.45 1572.51 2423.3 1498.84 2422.65 1425.18Z"/><path fill="white" transform="matrix(1.06157 0 0 1.06157 -81.7412 -1286.63)" d="M1796.19 1425.53L2012.02 1425.47C2013.09 1438.62 2012.5 1460.23 2012.5 1474.05L1856.83 1474.12C1856.32 1488.91 1856.69 1505.64 1856.7 1520.59C1903.44 1520.33 1950.17 1520.42 1996.91 1520.87C1999.33 1536.3 1998.62 1550.93 1998.19 1566.43C1965.92 1565.38 1929.9 1566.04 1897.34 1566.02L1856.8 1566.11C1856.19 1580.29 1856.68 1597.46 1856.7 1611.85C1888.34 1612.02 1919.98 1612.01 1951.63 1611.83C1967.5 1611.8 1995.46 1610.86 2009.75 1613.84C2014.3 1619.7 2012.46 1651.12 2012.35 1660.32C1987.96 1661.26 1958.87 1660.51 1934.16 1660.52L1792.11 1660.35C1794.24 1620.19 1791.43 1577.7 1792.64 1537.59C1793.18 1519.83 1789.93 1432.8 1796.19 1425.53Z"/><defs><linearGradient id="gradient_6" gradientUnits="userSpaceOnUse" x1="2209.9856" y1="1600.5508" x2="2076.9231" y2="1424.2991"><stop offset="0" stop-color="#6546FF"/><stop offset="1" stop-color="#7D6BFF"/></linearGradient></defs><path fill="url(#gradient_6)" transform="matrix(1.06157 0 0 1.06157 -81.7412 -1286.63)" d="M2059.1 1425.54C2126.95 1426.89 2207.41 1427.18 2275.17 1425.51C2275.21 1441.61 2275.11 1457.98 2275.33 1474.06C2229.44 1474.83 2164.09 1476.09 2118.94 1474.01C2118.82 1491.36 2118.4 1509.69 2118.95 1526.96C2166.77 1526.9 2215.76 1526.31 2263.47 1526.9L2263.5 1573.15C2218.16 1573.19 2163.53 1574.7 2118.94 1572.82C2118.66 1593.77 2117.2 1635.06 2119.09 1654.26C2113.06 1651.14 2064.18 1650.89 2058.11 1653.48C2061.15 1601.07 2056.97 1540.11 2058.56 1487.11C2059.09 1469.29 2057.33 1442.4 2059.1 1425.54Z"/><path fill="#2C5CFD" transform="matrix(1.06157 0 0 1.06157 -81.7412 -1286.63)" d="M192.56 1402.87C191.928 1408.58 190.983 1406.77 193.302 1410.18L192.583 1413.27C194.633 1408.77 196.901 1402.12 200.666 1399.42C206.091 1405.64 209.701 1410.69 216.815 1414.86L221.494 1414.91C218.316 1423.29 206.911 1440.1 207.764 1448.73C208.962 1457.99 201.693 1465.1 207.01 1471.01C210.068 1469.87 208.891 1470.5 210.683 1469.41C202.168 1510.55 199.265 1541.52 206.865 1583.54C210.439 1606.8 216.374 1621.33 226.556 1642.34C228.277 1645.89 234.92 1659.58 235.904 1662.52C239.472 1666.3 243.758 1672.43 246.324 1674.89C255.5 1687.67 263.086 1696.19 274.857 1706.86C290.922 1723.75 312.601 1739.1 332.512 1751.28L330.521 1754.57C333.755 1761.68 331.536 1757.99 336.944 1760.56C356.119 1769.65 370.498 1780.84 392.561 1782.97C406.389 1784.3 427.855 1791.69 439.285 1800.25C434.083 1800.68 409.492 1794.33 404.279 1792.05L399.908 1792.89C386.279 1785.56 354.7 1791.33 340.333 1777.46C338.582 1775.77 334.238 1777.14 332.175 1778C331.254 1786.91 346.238 1791.51 352.514 1796.07C358.3 1800.28 371.172 1798.56 375.791 1800.67C404.789 1813.92 438.331 1817.51 468.894 1826.97C459.479 1826.87 433.707 1825.93 425.552 1826.7C404.919 1829.64 350.573 1808.11 330.694 1798.93C181.195 1729.85 118.992 1552.55 192.56 1402.87Z"/><path fill="#1995FD" transform="matrix(1.06157 0 0 1.06157 -81.7412 -1286.63)" d="M235.904 1662.52L235.195 1665.16C225.213 1658.35 205.827 1615.28 202.616 1603.15C190.881 1558.78 186.819 1491.27 207.764 1448.73C208.962 1457.99 201.693 1465.1 207.01 1471.01C210.068 1469.87 208.891 1470.5 210.683 1469.41C202.168 1510.55 199.265 1541.52 206.865 1583.54C210.439 1606.8 216.374 1621.33 226.556 1642.34C228.277 1645.89 234.92 1659.58 235.904 1662.52Z"/><path fill="#2C5CFD" transform="matrix(1.06157 0 0 1.06157 -81.7412 -1286.63)" d="M226.753 1740.98C239.353 1751.04 251.202 1762.94 261.948 1774.96C264.339 1778.12 266.656 1781.06 268.85 1784.37C255.321 1810.2 193.248 1861.18 172.267 1887.82C150.423 1915.56 113.799 1904.52 97.7474 1874.06C87.5344 1842.45 108.06 1829.81 131.43 1811.94C162.582 1788.11 193.741 1761.97 226.753 1740.98Z"/><path fill="#5235FD" transform="matrix(1.06157 0 0 1.06157 -81.7412 -1286.63)" d="M97.7474 1874.06C106.027 1873.68 122.798 1882.02 126.347 1880.14C170.059 1856.95 201.881 1813.5 237.345 1779.9C240.77 1776.65 245.306 1775.64 249.766 1775.16C254.253 1776.82 254.958 1777.4 259.801 1777.54L261.948 1774.96C264.339 1778.12 266.656 1781.06 268.85 1784.37C255.321 1810.2 193.248 1861.18 172.267 1887.82C150.423 1915.56 113.799 1904.52 97.7474 1874.06Z"/><path fill="#2C5CFD" transform="matrix(1.06157 0 0 1.06157 -81.7412 -1286.63)" d="M2316.42 1425.82C2336.41 1425.8 2356.67 1425.6 2376.63 1425.81C2373.4 1450.84 2376.08 1484.36 2375.22 1510.26C2375.03 1516.09 2375.58 1532.3 2374.62 1537.04C2369.5 1548.93 2370.23 1633.01 2370.12 1650.88L2321.03 1650.88C2321.03 1628.34 2321.16 1513.8 2316.26 1497.6C2315.91 1473.68 2315.97 1449.75 2316.42 1425.82Z"/><path fill="#3850FD" fill-opacity="0.98431373" transform="matrix(1.06157 0 0 1.06157 -81.7412 -1286.63)" d="M468.894 1826.97C438.331 1817.51 404.789 1813.92 375.791 1800.67C371.172 1798.56 358.3 1800.28 352.514 1796.07C346.238 1791.51 331.254 1786.91 332.175 1778C334.238 1777.14 338.582 1775.77 340.333 1777.46C354.7 1791.33 386.279 1785.56 399.908 1792.89C409.959 1799.14 424.162 1800.94 434.485 1804.66C496.029 1826.82 531.406 1801.42 589.853 1786.5C607.455 1782 624.639 1782.61 643.159 1780.65C638.464 1784.39 624.059 1793.6 618.419 1795.14C603.099 1785.82 543.015 1810.62 528.603 1820.24L527.891 1822.11C533.332 1822.54 537.424 1822.55 542.895 1822.52C524.935 1830.08 446.185 1831 425.552 1826.7C433.707 1825.93 459.479 1826.87 468.894 1826.97Z"/><path fill="#1995FD" fill-opacity="0.98823529" transform="matrix(1.06157 0 0 1.06157 -81.7412 -1286.63)" d="M764.654 1344.13C773.569 1347.79 794.228 1362.18 798.57 1369.93C800.889 1382.48 827.855 1418.34 823.892 1429.86L821.358 1428.24L821.625 1428.37L819.453 1425.66C819.685 1431.79 819.486 1432.75 816.888 1438.33L813.972 1440.02C802.944 1411.47 793.202 1398.72 771.59 1376.8L774.05 1375.28C775.699 1364.29 763.578 1357.16 754.613 1359.87L754.88 1357.98C751.041 1354.82 746.912 1354.27 744.893 1350.04C749.176 1345.79 757.014 1346.28 762.615 1346.83L764.654 1344.13Z"/><path fill="#347DFD" transform="matrix(1.06157 0 0 1.06157 -81.7412 -1286.63)" d="M798.57 1369.93C826.698 1398.06 847.81 1480.98 852.453 1520.33C852.432 1524.86 853.097 1529.33 850.703 1532.86L848.053 1532.41C838.784 1522.11 837.354 1507.48 829.965 1496.64C825.216 1485.46 818.642 1454.47 813.972 1440.02L816.888 1438.33C819.486 1432.75 819.685 1431.79 819.453 1425.66L821.625 1428.37L821.358 1428.24L823.892 1429.86C827.855 1418.34 800.889 1382.48 798.57 1369.93Z"/><path fill="#5235FD" fill-opacity="0.98431373" transform="matrix(1.06157 0 0 1.06157 -81.7412 -1286.63)" d="M2316.26 1497.6C2321.16 1513.8 2321.03 1628.34 2321.03 1650.88L2370.12 1650.88C2370.23 1633.01 2369.5 1548.93 2374.62 1537.04C2376.96 1568.52 2375.23 1626.97 2375.23 1660.44L2316.14 1660.3C2317.22 1606.91 2315.85 1551.36 2316.26 1497.6Z"/><path fill="#2C5CFD" fill-opacity="0.98823529" transform="matrix(1.06157 0 0 1.06157 -81.7412 -1286.63)" d="M542.895 1822.52C537.424 1822.55 533.332 1822.54 527.891 1822.11L528.603 1820.24C543.015 1810.62 603.099 1785.82 618.419 1795.14C589.942 1810.51 574.062 1814.96 542.895 1822.52Z"/><path fill="#2C5CFD" fill-opacity="0.011764706" transform="matrix(1.06157 0 0 1.06157 -81.7412 -1286.63)" d="M2604.85 1547.37C2593.78 1531.94 2602.79 1467.1 2599.14 1446.99C2598.2 1441.81 2593.56 1441.89 2590.33 1437.26L2591.69 1433.01C2595.94 1428.81 2597.49 1428.77 2603.4 1426.84L2604.98 1439.92C2604.91 1474.35 2606.04 1513.44 2604.85 1547.37Z"/><path fill="#3850FD" fill-opacity="0.97254902" transform="matrix(1.06157 0 0 1.06157 -81.7412 -1286.63)" d="M2058.11 1653.48C2064.18 1650.89 2113.06 1651.14 2119.09 1654.26C2118.84 1656.15 2118.14 1659.25 2115.86 1659.53C2098.6 1661.61 2077.56 1662.71 2060.6 1658.96C2058.82 1658.56 2058.56 1655.14 2058.11 1653.48Z"/><path fill="#5235FD" fill-opacity="0.98039216" transform="matrix(1.06157 0 0 1.06157 -81.7412 -1286.63)" d="M2423.09 1646.18L2426.26 1650.73C2437.82 1654.44 2466.49 1653.79 2478.34 1651.15L2480.61 1647.02C2480.65 1651.37 2481.37 1656.28 2479.18 1659.68C2470.58 1661.09 2433.35 1662.47 2425.49 1658.49C2422.13 1653.94 2423.23 1653 2423.09 1646.18Z"/><path fill="#3850FD" fill-opacity="0.98431373" transform="matrix(1.06157 0 0 1.06157 -81.7412 -1286.63)" d="M2603.4 1426.84C2611.08 1424.33 2651.3 1425.21 2659.95 1426.33L2662.62 1428.18L2663.44 1432.84C2652.35 1437 2615.19 1423.18 2604.98 1439.92L2603.4 1426.84Z"/><path fill="#5235FD" fill-opacity="0.019607844" transform="matrix(1.06157 0 0 1.06157 -81.7412 -1286.63)" d="M801.689 1656.97L803.295 1657.04L801.684 1661.28C785.058 1664.99 769.258 1676.66 754.724 1676.94C773.727 1652.78 776.488 1661.66 801.689 1656.97Z"/><path fill="#2C5CFD" fill-opacity="0.011764706" transform="matrix(1.06157 0 0 1.06157 -81.7412 -1286.63)" d="M2422.45 1667.98C2426.23 1667.8 2430 1667.59 2433.78 1667.33L2435.91 1669.28L2435.62 1672.84C2430.92 1672.15 2425.96 1673.15 2422.02 1670.9L2422.45 1667.98Z"/></g></svg>